<?xml version="1.0" encoding="utf-8" standalone="no"?>
<!DOCTYPE svg PUBLIC "-//W3C//DTD SVG 1.1//EN"
  "http://www.w3.org/Graphics/SVG/1.1/DTD/svg11.dtd">
<svg xmlns:xlink="http://www.w3.org/1999/xlink" width="367.2pt" height="367.2pt" viewBox="0 0 367.2 367.2" xmlns="http://www.w3.org/2000/svg" version="1.1">
 <metadata>
  <rdf:RDF xmlns:dc="http://purl.org/dc/elements/1.1/" xmlns:cc="http://creativecommons.org/ns#" xmlns:rdf="http://www.w3.org/1999/02/22-rdf-syntax-ns#">
   <cc:Work>
    <dc:type rdf:resource="http://purl.org/dc/dcmitype/StillImage"/>
    <dc:date>2023-04-12T08:01:37.410322</dc:date>
    <dc:format>image/svg+xml</dc:format>
    <dc:creator>
     <cc:Agent>
      <dc:title>Matplotlib v3.6.2, https://matplotlib.org/</dc:title>
     </cc:Agent>
    </dc:creator>
   </cc:Work>
  </rdf:RDF>
 </metadata>
 <defs>
  <style type="text/css">*{stroke-linejoin: round; stroke-linecap: butt}</style>
 </defs>
 <g id="figure_1">
  <g id="patch_1">
   <path d="M 0 367.2 
L 367.2 367.2 
L 367.2 0 
L 0 0 
z
" style="fill: #ffffff"/>
  </g>
  <g id="axes_1">
   <g id="patch_2">
    <path d="M 45.9 326.808 
L 330.48 326.808 
L 330.48 44.064 
L 45.9 44.064 
z
" style="fill: #ffffff"/>
   </g>
   <g id="matplotlib.axis_1">
    <g id="xtick_1">
     <g id="line2d_1">
      <path d="M 45.9 326.808 
L 45.9 44.064 
" clip-path="url(#pb9e396d139)" style="fill: none; stroke: #b0b0b0; stroke-width: 0.8; stroke-linecap: square"/>
     </g>
     <g id="line2d_2">
      <defs>
       <path id="m58d95f531e" d="M 0 0 
L 0 3.5 
" style="stroke: #000000; stroke-width: 0.8"/>
      </defs>
      <g>
       <use xlink:href="#m58d95f531e" x="45.9" y="326.808" style="stroke: #000000; stroke-width: 0.8"/>
      </g>
     </g>
     <g id="text_1">
      <!-- $\mathdefault{0.0}$ -->
      <g transform="translate(39.534961 340.726498) scale(0.1 -0.1)">
       <defs>
        <path id="CMR17-30" d="M 2688 2025 
C 2688 2416 2682 3080 2413 3591 
C 2176 4039 1798 4198 1466 4198 
C 1158 4198 768 4058 525 3597 
C 269 3118 243 2524 243 2025 
C 243 1661 250 1106 448 619 
C 723 -39 1216 -128 1466 -128 
C 1760 -128 2208 -7 2470 600 
C 2662 1042 2688 1559 2688 2025 
z
M 1466 -26 
C 1056 -26 813 325 723 812 
C 653 1188 653 1738 653 2096 
C 653 2588 653 2997 736 3387 
C 858 3929 1216 4096 1466 4096 
C 1728 4096 2067 3923 2189 3400 
C 2272 3036 2278 2607 2278 2096 
C 2278 1680 2278 1169 2202 792 
C 2067 95 1690 -26 1466 -26 
z
" transform="scale(0.015625)"/>
        <path id="CMMI12-3a" d="M 1178 307 
C 1178 492 1024 619 870 619 
C 685 619 557 466 557 313 
C 557 128 710 0 864 0 
C 1050 0 1178 153 1178 307 
z
" transform="scale(0.015625)"/>
       </defs>
       <use xlink:href="#CMR17-30" transform="scale(0.996264)"/>
       <use xlink:href="#CMMI12-3a" transform="translate(45.690477 0) scale(0.996264)"/>
       <use xlink:href="#CMR17-30" transform="translate(72.787654 0) scale(0.996264)"/>
      </g>
     </g>
    </g>
    <g id="xtick_2">
     <g id="line2d_3">
      <path d="M 102.816 326.808 
L 102.816 44.064 
" clip-path="url(#pb9e396d139)" style="fill: none; stroke: #b0b0b0; stroke-width: 0.8; stroke-linecap: square"/>
     </g>
     <g id="line2d_4">
      <g>
       <use xlink:href="#m58d95f531e" x="102.816" y="326.808" style="stroke: #000000; stroke-width: 0.8"/>
      </g>
     </g>
     <g id="text_2">
      <!-- $\mathdefault{0.2}$ -->
      <g transform="translate(96.450961 340.726498) scale(0.1 -0.1)">
       <defs>
        <path id="CMR17-32" d="M 2669 989 
L 2554 989 
C 2490 536 2438 459 2413 420 
C 2381 369 1920 369 1830 369 
L 602 369 
C 832 619 1280 1072 1824 1597 
C 2214 1967 2669 2402 2669 3035 
C 2669 3790 2067 4224 1395 4224 
C 691 4224 262 3604 262 3030 
C 262 2780 448 2748 525 2748 
C 589 2748 781 2787 781 3010 
C 781 3207 614 3264 525 3264 
C 486 3264 448 3258 422 3245 
C 544 3790 915 4058 1306 4058 
C 1862 4058 2227 3617 2227 3035 
C 2227 2479 1901 2000 1536 1584 
L 262 146 
L 262 0 
L 2515 0 
L 2669 989 
z
" transform="scale(0.015625)"/>
       </defs>
       <use xlink:href="#CMR17-30" transform="scale(0.996264)"/>
       <use xlink:href="#CMMI12-3a" transform="translate(45.690477 0) scale(0.996264)"/>
       <use xlink:href="#CMR17-32" transform="translate(72.787654 0) scale(0.996264)"/>
      </g>
     </g>
    </g>
    <g id="xtick_3">
     <g id="line2d_5">
      <path d="M 159.732 326.808 
L 159.732 44.064 
" clip-path="url(#pb9e396d139)" style="fill: none; stroke: #b0b0b0; stroke-width: 0.8; stroke-linecap: square"/>
     </g>
     <g id="line2d_6">
      <g>
       <use xlink:href="#m58d95f531e" x="159.732" y="326.808" style="stroke: #000000; stroke-width: 0.8"/>
      </g>
     </g>
     <g id="text_3">
      <!-- $\mathdefault{0.4}$ -->
      <g transform="translate(153.366961 340.726498) scale(0.1 -0.1)">
       <defs>
        <path id="CMR17-34" d="M 2150 4122 
C 2150 4256 2144 4256 2029 4256 
L 128 1254 
L 128 1088 
L 1779 1088 
L 1779 457 
C 1779 224 1766 160 1318 160 
L 1197 160 
L 1197 0 
C 1402 0 1747 0 1965 0 
C 2182 0 2528 0 2733 0 
L 2733 160 
L 2611 160 
C 2163 160 2150 224 2150 457 
L 2150 1088 
L 2803 1088 
L 2803 1254 
L 2150 1254 
L 2150 4122 
z
M 1798 3703 
L 1798 1254 
L 256 1254 
L 1798 3703 
z
" transform="scale(0.015625)"/>
       </defs>
       <use xlink:href="#CMR17-30" transform="scale(0.996264)"/>
       <use xlink:href="#CMMI12-3a" transform="translate(45.690477 0) scale(0.996264)"/>
       <use xlink:href="#CMR17-34" transform="translate(72.787654 0) scale(0.996264)"/>
      </g>
     </g>
    </g>
    <g id="xtick_4">
     <g id="line2d_7">
      <path d="M 216.648 326.808 
L 216.648 44.064 
" clip-path="url(#pb9e396d139)" style="fill: none; stroke: #b0b0b0; stroke-width: 0.8; stroke-linecap: square"/>
     </g>
     <g id="line2d_8">
      <g>
       <use xlink:href="#m58d95f531e" x="216.648" y="326.808" style="stroke: #000000; stroke-width: 0.8"/>
      </g>
     </g>
     <g id="text_4">
      <!-- $\mathdefault{0.6}$ -->
      <g transform="translate(210.282961 340.726498) scale(0.1 -0.1)">
       <defs>
        <path id="CMR17-36" d="M 678 2176 
C 678 3690 1395 4032 1811 4032 
C 1946 4032 2272 4009 2400 3776 
C 2298 3776 2106 3776 2106 3553 
C 2106 3381 2246 3323 2336 3323 
C 2394 3323 2566 3348 2566 3560 
C 2566 3954 2246 4179 1805 4179 
C 1043 4179 243 3390 243 1984 
C 243 253 966 -128 1478 -128 
C 2099 -128 2688 427 2688 1283 
C 2688 2081 2170 2662 1517 2662 
C 1126 2662 838 2407 678 1960 
L 678 2176 
z
M 1478 25 
C 691 25 691 1200 691 1436 
C 691 1896 909 2560 1504 2560 
C 1613 2560 1926 2560 2138 2120 
C 2253 1870 2253 1609 2253 1289 
C 2253 944 2253 690 2118 434 
C 1978 171 1773 25 1478 25 
z
" transform="scale(0.015625)"/>
       </defs>
       <use xlink:href="#CMR17-30" transform="scale(0.996264)"/>
       <use xlink:href="#CMMI12-3a" transform="translate(45.690477 0) scale(0.996264)"/>
       <use xlink:href="#CMR17-36" transform="translate(72.787654 0) scale(0.996264)"/>
      </g>
     </g>
    </g>
    <g id="xtick_5">
     <g id="line2d_9">
      <path d="M 273.564 326.808 
L 273.564 44.064 
" clip-path="url(#pb9e396d139)" style="fill: none; stroke: #b0b0b0; stroke-width: 0.8; stroke-linecap: square"/>
     </g>
     <g id="line2d_10">
      <g>
       <use xlink:href="#m58d95f531e" x="273.564" y="326.808" style="stroke: #000000; stroke-width: 0.8"/>
      </g>
     </g>
     <g id="text_5">
      <!-- $\mathdefault{0.8}$ -->
      <g transform="translate(267.198961 340.726498) scale(0.1 -0.1)">
       <defs>
        <path id="CMR17-38" d="M 1741 2264 
C 2144 2467 2554 2773 2554 3263 
C 2554 3841 1990 4179 1472 4179 
C 890 4179 378 3759 378 3180 
C 378 3021 416 2747 666 2505 
C 730 2442 998 2251 1171 2130 
C 883 1983 211 1634 211 934 
C 211 279 838 -128 1459 -128 
C 2144 -128 2720 362 2720 1010 
C 2720 1590 2330 1857 2074 2029 
L 1741 2264 
z
M 902 2822 
C 851 2854 595 3051 595 3351 
C 595 3739 998 4032 1459 4032 
C 1965 4032 2336 3676 2336 3262 
C 2336 2669 1670 2331 1638 2331 
C 1632 2331 1626 2331 1574 2370 
L 902 2822 
z
M 2080 1519 
C 2176 1449 2483 1240 2483 851 
C 2483 381 2010 25 1472 25 
C 890 25 448 438 448 940 
C 448 1443 838 1862 1280 2060 
L 2080 1519 
z
" transform="scale(0.015625)"/>
       </defs>
       <use xlink:href="#CMR17-30" transform="scale(0.996264)"/>
       <use xlink:href="#CMMI12-3a" transform="translate(45.690477 0) scale(0.996264)"/>
       <use xlink:href="#CMR17-38" transform="translate(72.787654 0) scale(0.996264)"/>
      </g>
     </g>
    </g>
    <g id="xtick_6">
     <g id="line2d_11">
      <path d="M 330.48 326.808 
L 330.48 44.064 
" clip-path="url(#pb9e396d139)" style="fill: none; stroke: #b0b0b0; stroke-width: 0.8; stroke-linecap: square"/>
     </g>
     <g id="line2d_12">
      <g>
       <use xlink:href="#m58d95f531e" x="330.48" y="326.808" style="stroke: #000000; stroke-width: 0.8"/>
      </g>
     </g>
     <g id="text_6">
      <!-- $\mathdefault{1.0}$ -->
      <g transform="translate(324.114961 340.726498) scale(0.1 -0.1)">
       <defs>
        <path id="CMR17-31" d="M 1702 4058 
C 1702 4192 1696 4192 1606 4192 
C 1357 3916 979 3827 621 3827 
C 602 3827 570 3827 563 3808 
C 557 3795 557 3782 557 3648 
C 755 3648 1088 3686 1344 3839 
L 1344 461 
C 1344 236 1331 160 781 160 
L 589 160 
L 589 0 
C 896 0 1216 0 1523 0 
C 1830 0 2150 0 2458 0 
L 2458 160 
L 2266 160 
C 1715 160 1702 230 1702 458 
L 1702 4058 
z
" transform="scale(0.015625)"/>
       </defs>
       <use xlink:href="#CMR17-31" transform="scale(0.996264)"/>
       <use xlink:href="#CMMI12-3a" transform="translate(45.690477 0) scale(0.996264)"/>
       <use xlink:href="#CMR17-30" transform="translate(72.787654 0) scale(0.996264)"/>
      </g>
     </g>
    </g>
    <g id="text_7">
     <!-- X-Axis -->
     <g transform="translate(174.491347 353.582175) scale(0.1 -0.1)">
      <defs>
       <path id="CMSS17-58" d="M 2214 2329 
L 3661 4416 
L 3072 4416 
L 1952 2762 
L 800 4416 
L 166 4416 
L 1690 2329 
L 83 0 
L 672 0 
L 1952 1941 
L 3277 0 
L 3910 0 
L 2214 2329 
z
" transform="scale(0.015625)"/>
       <path id="CMSS17-2d" d="M 1664 1216 
L 1664 1585 
L 64 1585 
L 64 1216 
L 1664 1216 
z
" transform="scale(0.015625)"/>
       <path id="CMSS17-41" d="M 2272 4416 
L 1722 4416 
L 166 0 
L 653 0 
L 1101 1280 
L 2816 1280 
L 3270 0 
L 3827 0 
L 2272 4416 
z
M 2694 1637 
L 1222 1637 
C 1530 2528 1914 3638 1958 3925 
L 1965 3925 
C 2010 3663 2138 3281 2246 2956 
L 2694 1637 
z
" transform="scale(0.015625)"/>
       <path id="CMSS17-78" d="M 1587 1414 
L 2656 2739 
L 2099 2739 
L 1363 1777 
L 602 2739 
L 32 2739 
L 1139 1414 
L 0 0 
L 563 0 
L 1363 1121 
L 2195 0 
L 2758 0 
L 1587 1414 
z
" transform="scale(0.015625)"/>
       <path id="CMSS17-69" d="M 979 4183 
L 442 4183 
L 442 3648 
L 979 3648 
L 979 4183 
z
M 947 2739 
L 474 2739 
L 474 0 
L 947 0 
L 947 2739 
z
" transform="scale(0.015625)"/>
       <path id="CMSS17-73" d="M 2061 2627 
C 1683 2807 1389 2807 1197 2807 
C 742 2807 198 2648 198 2003 
C 198 1359 902 1218 1094 1179 
C 1389 1122 1715 1058 1715 740 
C 1715 337 1254 337 1171 337 
C 915 337 563 407 243 638 
L 166 210 
C 531 0 883 -64 1178 -64 
C 1965 -64 2163 416 2163 781 
C 2163 1094 1984 1305 1862 1401 
C 1651 1568 1574 1587 1050 1696 
C 960 1709 646 1779 646 2066 
C 646 2432 1050 2432 1139 2432 
C 1555 2432 1811 2303 1984 2208 
L 2061 2627 
z
" transform="scale(0.015625)"/>
      </defs>
      <use xlink:href="#CMSS17-58" transform="scale(0.996264)"/>
      <use xlink:href="#CMSS17-2d" transform="translate(62.217855 0) scale(0.996264)"/>
      <use xlink:href="#CMSS17-41" transform="translate(93.446968 0) scale(0.996264)"/>
      <use xlink:href="#CMSS17-78" transform="translate(155.664823 0) scale(0.996264)"/>
      <use xlink:href="#CMSS17-69" transform="translate(198.664964 0) scale(0.996264)"/>
      <use xlink:href="#CMSS17-73" transform="translate(220.845687 0) scale(0.996264)"/>
     </g>
    </g>
   </g>
   <g id="matplotlib.axis_2">
    <g id="ytick_1">
     <g id="line2d_13">
      <path d="M 45.9 326.808 
L 330.48 326.808 
" clip-path="url(#pb9e396d139)" style="fill: none; stroke: #b0b0b0; stroke-width: 0.8; stroke-linecap: square"/>
     </g>
     <g id="line2d_14">
      <defs>
       <path id="m46594ded65" d="M 0 0 
L -3.5 0 
" style="stroke: #000000; stroke-width: 0.8"/>
      </defs>
      <g>
       <use xlink:href="#m46594ded65" x="45.9" y="326.808" style="stroke: #000000; stroke-width: 0.8"/>
      </g>
     </g>
     <g id="text_8">
      <!-- $\mathdefault{0.0}$ -->
      <g transform="translate(26.169921 330.267249) scale(0.1 -0.1)">
       <use xlink:href="#CMR17-30" transform="scale(0.996264)"/>
       <use xlink:href="#CMMI12-3a" transform="translate(45.690477 0) scale(0.996264)"/>
       <use xlink:href="#CMR17-30" transform="translate(72.787654 0) scale(0.996264)"/>
      </g>
     </g>
    </g>
    <g id="ytick_2">
     <g id="line2d_15">
      <path d="M 45.9 270.2592 
L 330.48 270.2592 
" clip-path="url(#pb9e396d139)" style="fill: none; stroke: #b0b0b0; stroke-width: 0.8; stroke-linecap: square"/>
     </g>
     <g id="line2d_16">
      <g>
       <use xlink:href="#m46594ded65" x="45.9" y="270.2592" style="stroke: #000000; stroke-width: 0.8"/>
      </g>
     </g>
     <g id="text_9">
      <!-- $\mathdefault{0.2}$ -->
      <g transform="translate(26.169921 273.718449) scale(0.1 -0.1)">
       <use xlink:href="#CMR17-30" transform="scale(0.996264)"/>
       <use xlink:href="#CMMI12-3a" transform="translate(45.690477 0) scale(0.996264)"/>
       <use xlink:href="#CMR17-32" transform="translate(72.787654 0) scale(0.996264)"/>
      </g>
     </g>
    </g>
    <g id="ytick_3">
     <g id="line2d_17">
      <path d="M 45.9 213.7104 
L 330.48 213.7104 
" clip-path="url(#pb9e396d139)" style="fill: none; stroke: #b0b0b0; stroke-width: 0.8; stroke-linecap: square"/>
     </g>
     <g id="line2d_18">
      <g>
       <use xlink:href="#m46594ded65" x="45.9" y="213.7104" style="stroke: #000000; stroke-width: 0.8"/>
      </g>
     </g>
     <g id="text_10">
      <!-- $\mathdefault{0.4}$ -->
      <g transform="translate(26.169921 217.169649) scale(0.1 -0.1)">
       <use xlink:href="#CMR17-30" transform="scale(0.996264)"/>
       <use xlink:href="#CMMI12-3a" transform="translate(45.690477 0) scale(0.996264)"/>
       <use xlink:href="#CMR17-34" transform="translate(72.787654 0) scale(0.996264)"/>
      </g>
     </g>
    </g>
    <g id="ytick_4">
     <g id="line2d_19">
      <path d="M 45.9 157.1616 
L 330.48 157.1616 
" clip-path="url(#pb9e396d139)" style="fill: none; stroke: #b0b0b0; stroke-width: 0.8; stroke-linecap: square"/>
     </g>
     <g id="line2d_20">
      <g>
       <use xlink:href="#m46594ded65" x="45.9" y="157.1616" style="stroke: #000000; stroke-width: 0.8"/>
      </g>
     </g>
     <g id="text_11">
      <!-- $\mathdefault{0.6}$ -->
      <g transform="translate(26.169921 160.620849) scale(0.1 -0.1)">
       <use xlink:href="#CMR17-30" transform="scale(0.996264)"/>
       <use xlink:href="#CMMI12-3a" transform="translate(45.690477 0) scale(0.996264)"/>
       <use xlink:href="#CMR17-36" transform="translate(72.787654 0) scale(0.996264)"/>
      </g>
     </g>
    </g>
    <g id="ytick_5">
     <g id="line2d_21">
      <path d="M 45.9 100.6128 
L 330.48 100.6128 
" clip-path="url(#pb9e396d139)" style="fill: none; stroke: #b0b0b0; stroke-width: 0.8; stroke-linecap: square"/>
     </g>
     <g id="line2d_22">
      <g>
       <use xlink:href="#m46594ded65" x="45.9" y="100.6128" style="stroke: #000000; stroke-width: 0.8"/>
      </g>
     </g>
     <g id="text_12">
      <!-- $\mathdefault{0.8}$ -->
      <g transform="translate(26.169921 104.072049) scale(0.1 -0.1)">
       <use xlink:href="#CMR17-30" transform="scale(0.996264)"/>
       <use xlink:href="#CMMI12-3a" transform="translate(45.690477 0) scale(0.996264)"/>
       <use xlink:href="#CMR17-38" transform="translate(72.787654 0) scale(0.996264)"/>
      </g>
     </g>
    </g>
    <g id="ytick_6">
     <g id="line2d_23">
      <path d="M 45.9 44.064 
L 330.48 44.064 
" clip-path="url(#pb9e396d139)" style="fill: none; stroke: #b0b0b0; stroke-width: 0.8; stroke-linecap: square"/>
     </g>
     <g id="line2d_24">
      <g>
       <use xlink:href="#m46594ded65" x="45.9" y="44.064" style="stroke: #000000; stroke-width: 0.8"/>
      </g>
     </g>
     <g id="text_13">
      <!-- $\mathdefault{1.0}$ -->
      <g transform="translate(26.169921 47.523249) scale(0.1 -0.1)">
       <use xlink:href="#CMR17-31" transform="scale(0.996264)"/>
       <use xlink:href="#CMMI12-3a" transform="translate(45.690477 0) scale(0.996264)"/>
       <use xlink:href="#CMR17-30" transform="translate(72.787654 0) scale(0.996264)"/>
      </g>
     </g>
    </g>
    <g id="text_14">
     <!-- Y-Axis -->
     <g transform="translate(20.232743 199.134653) rotate(-90) scale(0.1 -0.1)">
      <defs>
       <path id="CMSS17-59" d="M 3974 4416 
L 3424 4416 
L 2432 2877 
C 2355 2755 2138 2425 2035 2240 
L 1722 2743 
L 646 4416 
L 19 4416 
L 1734 1769 
L 1734 0 
L 2259 0 
L 2259 1763 
L 3974 4416 
z
" transform="scale(0.015625)"/>
      </defs>
      <use xlink:href="#CMSS17-59" transform="scale(0.996264)"/>
      <use xlink:href="#CMSS17-2d" transform="translate(62.217855 0) scale(0.996264)"/>
      <use xlink:href="#CMSS17-41" transform="translate(93.446968 0) scale(0.996264)"/>
      <use xlink:href="#CMSS17-78" transform="translate(155.664823 0) scale(0.996264)"/>
      <use xlink:href="#CMSS17-69" transform="translate(198.664964 0) scale(0.996264)"/>
      <use xlink:href="#CMSS17-73" transform="translate(220.845687 0) scale(0.996264)"/>
     </g>
    </g>
   </g>
   <g id="line2d_25">
    <defs>
     <path id="md495e1efff" d="M 0 3 
C 0.795609 3 1.55874 2.683901 2.12132 2.12132 
C 2.683901 1.55874 3 0.795609 3 0 
C 3 -0.795609 2.683901 -1.55874 2.12132 -2.12132 
C 1.55874 -2.683901 0.795609 -3 0 -3 
C -0.795609 -3 -1.55874 -2.683901 -2.12132 -2.12132 
C -2.683901 -1.55874 -3 -0.795609 -3 0 
C -3 0.795609 -2.683901 1.55874 -2.12132 2.12132 
C -1.55874 2.683901 -0.795609 3 0 3 
z
" style="stroke: #1f77b4"/>
    </defs>
    <g clip-path="url(#pb9e396d139)">
     <use xlink:href="#md495e1efff" x="58.122408" y="227.077293" style="fill: #1f77b4; stroke: #1f77b4"/>
     <use xlink:href="#md495e1efff" x="207.744685" y="76.967606" style="fill: #1f77b4; stroke: #1f77b4"/>
     <use xlink:href="#md495e1efff" x="227.157301" y="108.672929" style="fill: #1f77b4; stroke: #1f77b4"/>
     <use xlink:href="#md495e1efff" x="196.261677" y="109.324327" style="fill: #1f77b4; stroke: #1f77b4"/>
     <use xlink:href="#md495e1efff" x="259.87497" y="131.352343" style="fill: #1f77b4; stroke: #1f77b4"/>
     <use xlink:href="#md495e1efff" x="215.613224" y="92.549852" style="fill: #1f77b4; stroke: #1f77b4"/>
     <use xlink:href="#md495e1efff" x="73.865792" y="248.353015" style="fill: #1f77b4; stroke: #1f77b4"/>
     <use xlink:href="#md495e1efff" x="123.494219" y="147.928195" style="fill: #1f77b4; stroke: #1f77b4"/>
     <use xlink:href="#md495e1efff" x="61.666115" y="270.675524" style="fill: #1f77b4; stroke: #1f77b4"/>
     <use xlink:href="#md495e1efff" x="147.161382" y="196.434843" style="fill: #1f77b4; stroke: #1f77b4"/>
     <use xlink:href="#md495e1efff" x="187.68438" y="236.973927" style="fill: #1f77b4; stroke: #1f77b4"/>
     <use xlink:href="#md495e1efff" x="254.629755" y="200.495703" style="fill: #1f77b4; stroke: #1f77b4"/>
     <use xlink:href="#md495e1efff" x="128.159118" y="314.950479" style="fill: #1f77b4; stroke: #1f77b4"/>
     <use xlink:href="#md495e1efff" x="322.607416" y="67.193727" style="fill: #1f77b4; stroke: #1f77b4"/>
     <use xlink:href="#md495e1efff" x="270.667213" y="303.551573" style="fill: #1f77b4; stroke: #1f77b4"/>
     <use xlink:href="#md495e1efff" x="203.041101" y="251.805516" style="fill: #1f77b4; stroke: #1f77b4"/>
     <use xlink:href="#md495e1efff" x="166.221147" y="176.735574" style="fill: #1f77b4; stroke: #1f77b4"/>
     <use xlink:href="#md495e1efff" x="266.681767" y="60.127427" style="fill: #1f77b4; stroke: #1f77b4"/>
     <use xlink:href="#md495e1efff" x="120.491983" y="89.689951" style="fill: #1f77b4; stroke: #1f77b4"/>
     <use xlink:href="#md495e1efff" x="147.664255" y="170.50405" style="fill: #1f77b4; stroke: #1f77b4"/>
     <use xlink:href="#md495e1efff" x="294.471287" y="187.665249" style="fill: #1f77b4; stroke: #1f77b4"/>
     <use xlink:href="#md495e1efff" x="172.147776" y="245.873754" style="fill: #1f77b4; stroke: #1f77b4"/>
     <use xlink:href="#md495e1efff" x="84.719581" y="64.7246" style="fill: #1f77b4; stroke: #1f77b4"/>
     <use xlink:href="#md495e1efff" x="145.225308" y="210.503797" style="fill: #1f77b4; stroke: #1f77b4"/>
     <use xlink:href="#md495e1efff" x="211.24169" y="186.814357" style="fill: #1f77b4; stroke: #1f77b4"/>
     <use xlink:href="#md495e1efff" x="219.81881" y="77.025837" style="fill: #1f77b4; stroke: #1f77b4"/>
     <use xlink:href="#md495e1efff" x="287.819793" y="297.164792" style="fill: #1f77b4; stroke: #1f77b4"/>
     <use xlink:href="#md495e1efff" x="60.834831" y="151.796983" style="fill: #1f77b4; stroke: #1f77b4"/>
     <use xlink:href="#md495e1efff" x="119.504112" y="188.297465" style="fill: #1f77b4; stroke: #1f77b4"/>
     <use xlink:href="#md495e1efff" x="166.220143" y="201.406366" style="fill: #1f77b4; stroke: #1f77b4"/>
     <use xlink:href="#md495e1efff" x="63.867957" y="62.615486" style="fill: #1f77b4; stroke: #1f77b4"/>
     <use xlink:href="#md495e1efff" x="287.030753" y="260.450029" style="fill: #1f77b4; stroke: #1f77b4"/>
     <use xlink:href="#md495e1efff" x="323.959052" y="135.31722" style="fill: #1f77b4; stroke: #1f77b4"/>
     <use xlink:href="#md495e1efff" x="258.289316" y="235.868192" style="fill: #1f77b4; stroke: #1f77b4"/>
     <use xlink:href="#md495e1efff" x="237.282221" y="283.954074" style="fill: #1f77b4; stroke: #1f77b4"/>
     <use xlink:href="#md495e1efff" x="77.535686" y="108.258418" style="fill: #1f77b4; stroke: #1f77b4"/>
     <use xlink:href="#md495e1efff" x="186.169862" y="135.605722" style="fill: #1f77b4; stroke: #1f77b4"/>
     <use xlink:href="#md495e1efff" x="52.373261" y="98.261797" style="fill: #1f77b4; stroke: #1f77b4"/>
     <use xlink:href="#md495e1efff" x="151.076231" y="267.322931" style="fill: #1f77b4; stroke: #1f77b4"/>
     <use xlink:href="#md495e1efff" x="68.859844" y="269.663394" style="fill: #1f77b4; stroke: #1f77b4"/>
     <use xlink:href="#md495e1efff" x="325.148955" y="240.565055" style="fill: #1f77b4; stroke: #1f77b4"/>
     <use xlink:href="#md495e1efff" x="323.325908" y="266.532159" style="fill: #1f77b4; stroke: #1f77b4"/>
     <use xlink:href="#md495e1efff" x="195.527041" y="201.636887" style="fill: #1f77b4; stroke: #1f77b4"/>
     <use xlink:href="#md495e1efff" x="266.70541" y="250.342162" style="fill: #1f77b4; stroke: #1f77b4"/>
     <use xlink:href="#md495e1efff" x="69.588534" y="173.446864" style="fill: #1f77b4; stroke: #1f77b4"/>
     <use xlink:href="#md495e1efff" x="229.974673" y="221.637606" style="fill: #1f77b4; stroke: #1f77b4"/>
     <use xlink:href="#md495e1efff" x="171.542869" y="178.306507" style="fill: #1f77b4; stroke: #1f77b4"/>
     <use xlink:href="#md495e1efff" x="212.593516" y="68.396977" style="fill: #1f77b4; stroke: #1f77b4"/>
     <use xlink:href="#md495e1efff" x="167.612968" y="189.457164" style="fill: #1f77b4; stroke: #1f77b4"/>
     <use xlink:href="#md495e1efff" x="187.489353" y="197.921074" style="fill: #1f77b4; stroke: #1f77b4"/>
     <use xlink:href="#md495e1efff" x="115.220685" y="271.648317" style="fill: #1f77b4; stroke: #1f77b4"/>
     <use xlink:href="#md495e1efff" x="149.039744" y="114.902765" style="fill: #1f77b4; stroke: #1f77b4"/>
     <use xlink:href="#md495e1efff" x="56.73514" y="221.570274" style="fill: #1f77b4; stroke: #1f77b4"/>
     <use xlink:href="#md495e1efff" x="193.99201" y="266.862448" style="fill: #1f77b4; stroke: #1f77b4"/>
     <use xlink:href="#md495e1efff" x="320.928215" y="212.143026" style="fill: #1f77b4; stroke: #1f77b4"/>
     <use xlink:href="#md495e1efff" x="80.689203" y="70.254743" style="fill: #1f77b4; stroke: #1f77b4"/>
     <use xlink:href="#md495e1efff" x="126.764076" y="50.029977" style="fill: #1f77b4; stroke: #1f77b4"/>
     <use xlink:href="#md495e1efff" x="220.111275" y="322.750376" style="fill: #1f77b4; stroke: #1f77b4"/>
     <use xlink:href="#md495e1efff" x="217.190165" y="224.200641" style="fill: #1f77b4; stroke: #1f77b4"/>
     <use xlink:href="#md495e1efff" x="245.307222" y="126.767613" style="fill: #1f77b4; stroke: #1f77b4"/>
     <use xlink:href="#md495e1efff" x="128.116046" y="52.645956" style="fill: #1f77b4; stroke: #1f77b4"/>
     <use xlink:href="#md495e1efff" x="234.769661" y="226.966184" style="fill: #1f77b4; stroke: #1f77b4"/>
     <use xlink:href="#md495e1efff" x="89.503527" y="288.245687" style="fill: #1f77b4; stroke: #1f77b4"/>
     <use xlink:href="#md495e1efff" x="318.90664" y="63.203803" style="fill: #1f77b4; stroke: #1f77b4"/>
     <use xlink:href="#md495e1efff" x="316.446412" y="325.843472" style="fill: #1f77b4; stroke: #1f77b4"/>
     <use xlink:href="#md495e1efff" x="72.857318" y="145.118347" style="fill: #1f77b4; stroke: #1f77b4"/>
     <use xlink:href="#md495e1efff" x="324.211603" y="105.641378" style="fill: #1f77b4; stroke: #1f77b4"/>
     <use xlink:href="#md495e1efff" x="157.457706" y="128.542355" style="fill: #1f77b4; stroke: #1f77b4"/>
     <use xlink:href="#md495e1efff" x="327.88456" y="136.898366" style="fill: #1f77b4; stroke: #1f77b4"/>
     <use xlink:href="#md495e1efff" x="275.330851" y="192.348173" style="fill: #1f77b4; stroke: #1f77b4"/>
     <use xlink:href="#md495e1efff" x="317.791594" y="277.821962" style="fill: #1f77b4; stroke: #1f77b4"/>
     <use xlink:href="#md495e1efff" x="110.911634" y="270.269952" style="fill: #1f77b4; stroke: #1f77b4"/>
     <use xlink:href="#md495e1efff" x="241.439093" y="162.591424" style="fill: #1f77b4; stroke: #1f77b4"/>
     <use xlink:href="#md495e1efff" x="265.560623" y="127.905049" style="fill: #1f77b4; stroke: #1f77b4"/>
     <use xlink:href="#md495e1efff" x="120.795481" y="50.924086" style="fill: #1f77b4; stroke: #1f77b4"/>
     <use xlink:href="#md495e1efff" x="154.733802" y="109.413601" style="fill: #1f77b4; stroke: #1f77b4"/>
     <use xlink:href="#md495e1efff" x="103.465586" y="285.534061" style="fill: #1f77b4; stroke: #1f77b4"/>
     <use xlink:href="#md495e1efff" x="257.195102" y="52.147957" style="fill: #1f77b4; stroke: #1f77b4"/>
     <use xlink:href="#md495e1efff" x="273.169002" y="195.490343" style="fill: #1f77b4; stroke: #1f77b4"/>
     <use xlink:href="#md495e1efff" x="285.667644" y="297.38453" style="fill: #1f77b4; stroke: #1f77b4"/>
     <use xlink:href="#md495e1efff" x="236.414215" y="68.675453" style="fill: #1f77b4; stroke: #1f77b4"/>
     <use xlink:href="#md495e1efff" x="269.275771" y="161.003659" style="fill: #1f77b4; stroke: #1f77b4"/>
     <use xlink:href="#md495e1efff" x="196.678445" y="293.539976" style="fill: #1f77b4; stroke: #1f77b4"/>
     <use xlink:href="#md495e1efff" x="146.315184" y="164.136858" style="fill: #1f77b4; stroke: #1f77b4"/>
     <use xlink:href="#md495e1efff" x="171.939432" y="192.751086" style="fill: #1f77b4; stroke: #1f77b4"/>
     <use xlink:href="#md495e1efff" x="224.941074" y="86.922163" style="fill: #1f77b4; stroke: #1f77b4"/>
     <use xlink:href="#md495e1efff" x="134.600058" y="274.927781" style="fill: #1f77b4; stroke: #1f77b4"/>
     <use xlink:href="#md495e1efff" x="182.96532" y="68.170483" style="fill: #1f77b4; stroke: #1f77b4"/>
     <use xlink:href="#md495e1efff" x="95.779024" y="243.306775" style="fill: #1f77b4; stroke: #1f77b4"/>
     <use xlink:href="#md495e1efff" x="58.763018" y="263.891971" style="fill: #1f77b4; stroke: #1f77b4"/>
     <use xlink:href="#md495e1efff" x="316.771811" y="140.562245" style="fill: #1f77b4; stroke: #1f77b4"/>
     <use xlink:href="#md495e1efff" x="166.905793" y="106.325816" style="fill: #1f77b4; stroke: #1f77b4"/>
     <use xlink:href="#md495e1efff" x="225.554788" y="321.238179" style="fill: #1f77b4; stroke: #1f77b4"/>
     <use xlink:href="#md495e1efff" x="251.804798" y="49.303668" style="fill: #1f77b4; stroke: #1f77b4"/>
     <use xlink:href="#md495e1efff" x="205.81234" y="221.687958" style="fill: #1f77b4; stroke: #1f77b4"/>
     <use xlink:href="#md495e1efff" x="87.159897" y="59.599805" style="fill: #1f77b4; stroke: #1f77b4"/>
     <use xlink:href="#md495e1efff" x="159.132142" y="308.387826" style="fill: #1f77b4; stroke: #1f77b4"/>
     <use xlink:href="#md495e1efff" x="154.25306" y="270.988282" style="fill: #1f77b4; stroke: #1f77b4"/>
     <use xlink:href="#md495e1efff" x="182.296704" y="295.335266" style="fill: #1f77b4; stroke: #1f77b4"/>
     <use xlink:href="#md495e1efff" x="240.91394" y="291.134861" style="fill: #1f77b4; stroke: #1f77b4"/>
    </g>
   </g>
   <g id="line2d_26">
    <defs>
     <path id="m13ce2e5880" d="M 0 3 
C 0.795609 3 1.55874 2.683901 2.12132 2.12132 
C 2.683901 1.55874 3 0.795609 3 0 
C 3 -0.795609 2.683901 -1.55874 2.12132 -2.12132 
C 1.55874 -2.683901 0.795609 -3 0 -3 
C -0.795609 -3 -1.55874 -2.683901 -2.12132 -2.12132 
C -2.683901 -1.55874 -3 -0.795609 -3 0 
C -3 0.795609 -2.683901 1.55874 -2.12132 2.12132 
C -1.55874 2.683901 -0.795609 3 0 3 
z
" style="stroke: #ff7f0e"/>
    </defs>
    <g clip-path="url(#pb9e396d139)">
     <use xlink:href="#m13ce2e5880" x="190.672351" y="183.961538" style="fill: #ff7f0e; stroke: #ff7f0e"/>
    </g>
   </g>
   <g id="patch_3">
    <path d="M 45.9 326.808 
L 45.9 44.064 
" style="fill: none; stroke: #000000; stroke-width: 0.8; stroke-linejoin: miter; stroke-linecap: square"/>
   </g>
   <g id="patch_4">
    <path d="M 330.48 326.808 
L 330.48 44.064 
" style="fill: none; stroke: #000000; stroke-width: 0.8; stroke-linejoin: miter; stroke-linecap: square"/>
   </g>
   <g id="patch_5">
    <path d="M 45.9 326.808 
L 330.48 326.808 
" style="fill: none; stroke: #000000; stroke-width: 0.8; stroke-linejoin: miter; stroke-linecap: square"/>
   </g>
   <g id="patch_6">
    <path d="M 45.9 44.064 
L 330.48 44.064 
" style="fill: none; stroke: #000000; stroke-width: 0.8; stroke-linejoin: miter; stroke-linecap: square"/>
   </g>
   <g id="text_15">
    <!-- Random Positions -->
    <g transform="translate(144.340398 38.064) scale(0.12 -0.12)">
     <defs>
      <path id="CMSS17-52" d="M 2522 2109 
L 2534 2115 
C 3533 2459 3539 3147 3539 3268 
C 3539 3873 2925 4453 2003 4453 
L 570 4453 
L 570 32 
L 1094 32 
L 1094 2048 
L 2035 2048 
L 3168 32 
L 3706 32 
L 2522 2109 
z
M 1094 2437 
L 1094 4096 
L 1933 4096 
C 2746 4096 3034 3637 3034 3267 
C 3034 2922 2778 2437 1933 2437 
L 1094 2437 
z
" transform="scale(0.015625)"/>
      <path id="CMSS17-61" d="M 2406 1791 
C 2406 2392 1978 2808 1402 2808 
C 1120 2808 813 2757 461 2553 
L 499 2135 
C 659 2248 934 2432 1395 2432 
C 1722 2432 1920 2180 1920 1782 
L 1920 1536 
C 896 1536 256 1238 256 726 
C 256 461 416 -64 947 -64 
C 1043 -64 1562 -64 1933 217 
L 1933 -19 
L 2406 -19 
L 2406 1791 
z
M 1920 816 
C 1920 701 1920 548 1728 434 
C 1562 325 1350 325 1261 325 
C 941 325 723 511 723 744 
C 723 1211 1722 1211 1920 1211 
L 1920 816 
z
" transform="scale(0.015625)"/>
      <path id="CMSS17-6e" d="M 2618 1877 
C 2618 2283 2522 2816 1798 2816 
C 1389 2816 1120 2606 941 2389 
L 941 2758 
L 474 2758 
L 474 0 
L 960 0 
L 960 1559 
C 960 1964 1114 2428 1549 2428 
C 2112 2428 2131 2048 2131 1829 
L 2131 0 
L 2618 0 
L 2618 1877 
z
" transform="scale(0.015625)"/>
      <path id="CMSS17-64" d="M 2611 4416 
L 2138 4416 
L 2138 2438 
C 1939 2603 1613 2756 1254 2756 
C 672 2756 211 2131 211 1347 
C 211 562 666 -64 1235 -64 
C 1677 -64 1971 172 2125 306 
L 2125 -13 
L 2611 -13 
L 2611 4416 
z
M 2125 836 
C 2125 747 2125 653 1926 482 
C 1798 375 1645 325 1498 325 
C 1152 325 698 576 698 1340 
C 698 2134 1210 2368 1562 2368 
C 1798 2368 1990 2254 2125 2065 
L 2125 836 
z
" transform="scale(0.015625)"/>
      <path id="CMSS17-6f" d="M 2829 1356 
C 2829 2176 2221 2816 1504 2816 
C 768 2816 173 2157 173 1356 
C 173 544 787 -64 1498 -64 
C 2227 -64 2829 563 2829 1356 
z
M 1504 337 
C 1050 337 659 709 659 1408 
C 659 2151 1114 2427 1498 2427 
C 1914 2427 2342 2126 2342 1408 
C 2342 683 1926 337 1504 337 
z
" transform="scale(0.015625)"/>
      <path id="CMSS17-6d" d="M 4288 1877 
C 4288 2308 4179 2816 3462 2816 
C 2982 2816 2694 2516 2566 2331 
C 2451 2670 2182 2816 1798 2816 
C 1363 2816 1088 2568 941 2389 
L 941 2758 
L 474 2758 
L 474 0 
L 960 0 
L 960 1559 
C 960 1939 1101 2428 1555 2428 
C 2138 2428 2138 2016 2138 1829 
L 2138 0 
L 2624 0 
L 2624 1559 
C 2624 1939 2765 2428 3219 2428 
C 3802 2428 3802 2016 3802 1829 
L 3802 0 
L 4288 0 
L 4288 1877 
z
" transform="scale(0.015625)"/>
      <path id="CMSS17-50" d="M 2106 1856 
C 2874 1856 3501 2453 3501 3158 
C 3501 3850 2899 4453 2067 4453 
L 570 4453 
L 570 0 
L 1107 0 
L 1107 1856 
L 2106 1856 
z
M 1926 4096 
C 2669 4096 2995 3627 2995 3157 
C 2995 2720 2694 2226 1926 2226 
L 1094 2226 
L 1094 4096 
L 1926 4096 
z
" transform="scale(0.015625)"/>
      <path id="CMSS17-74" d="M 1069 2368 
L 1901 2368 
L 1901 2737 
L 1069 2737 
L 1069 3520 
L 614 3520 
L 614 2737 
L 109 2737 
L 109 2368 
L 602 2368 
L 602 749 
C 602 384 685 -64 1107 -64 
C 1427 -64 1722 25 2003 172 
L 1901 548 
C 1747 414 1562 337 1363 337 
C 1082 337 1069 696 1069 856 
L 1069 2368 
z
" transform="scale(0.015625)"/>
     </defs>
     <use xlink:href="#CMSS17-52" transform="scale(0.996264)"/>
     <use xlink:href="#CMSS17-61" transform="translate(60.416155 0) scale(0.996264)"/>
     <use xlink:href="#CMSS17-6e" transform="translate(105.338075 0) scale(0.996264)"/>
     <use xlink:href="#CMSS17-64" transform="translate(153.543019 0) scale(0.996264)"/>
     <use xlink:href="#CMSS17-6f" transform="translate(201.747962 0) scale(0.996264)"/>
     <use xlink:href="#CMSS17-6d" transform="translate(248.591585 0) scale(0.996264)"/>
     <use xlink:href="#CMSS17-50" transform="translate(354.049952 0) scale(0.996264)"/>
     <use xlink:href="#CMSS17-6f" transform="translate(411.183085 0) scale(0.996264)"/>
     <use xlink:href="#CMSS17-73" transform="translate(458.026708 0) scale(0.996264)"/>
     <use xlink:href="#CMSS17-69" transform="translate(493.94025 0) scale(0.996264)"/>
     <use xlink:href="#CMSS17-74" transform="translate(516.120973 0) scale(0.996264)"/>
     <use xlink:href="#CMSS17-69" transform="translate(549.95254 0) scale(0.996264)"/>
     <use xlink:href="#CMSS17-6f" transform="translate(572.133263 0) scale(0.996264)"/>
     <use xlink:href="#CMSS17-6e" transform="translate(618.976887 0) scale(0.996264)"/>
     <use xlink:href="#CMSS17-73" transform="translate(667.18183 0) scale(0.996264)"/>
    </g>
   </g>
  </g>
 </g>
 <defs>
  <clipPath id="pb9e396d139">
   <rect x="45.9" y="44.064" width="284.58" height="282.744"/>
  </clipPath>
 </defs>
</svg>
